<svg width="32" height="32" viewBox="0 0 32 32" fill="none" xmlns="http://www.w3.org/2000/svg">
  <rect width="32" height="32" rx="8" fill="#102A71"/>
  <path d="M8 12C8 10.3431 9.34315 9 11 9H21C22.6569 9 24 10.3431 24 12V20C24 21.6569 22.6569 23 21 23H11C9.34315 23 8 21.6569 8 20V12Z" fill="white"/>
  <circle cx="13" cy="14" r="2" fill="#102A71"/>
  <circle cx="19" cy="18" r="2" fill="#102A71"/>
  <path d="M11 19C11 18.4477 11.4477 18 12 18H20C20.5523 18 21 18.4477 21 19V19C21 19.5523 20.5523 20 20 20H12C11.4477 20 11 19.5523 11 19V19Z" fill="#102A71"/>
</svg>